
<svg id="visual" viewBox="0 0 900 600" width="900" height="600" xmlns="http://www.w3.org/2000/svg" xmlns:xlink="http://www.w3.org/1999/xlink" version="1.1"><rect x="0" y="0" width="900" height="600" fill="#fff"></rect><defs><linearGradient id="grad1_0" x1="33.3%" y1="100%" x2="100%" y2="0%"><stop offset="20%" stop-color="#85d654" stop-opacity="1"></stop><stop offset="80%" stop-color="#85d654" stop-opacity="1"></stop></linearGradient></defs><defs><linearGradient id="grad1_1" x1="33.3%" y1="100%" x2="100%" y2="0%"><stop offset="20%" stop-color="#85d654" stop-opacity="1"></stop><stop offset="80%" stop-color="#99dc6e" stop-opacity="1"></stop></linearGradient></defs><defs><linearGradient id="grad1_2" x1="33.3%" y1="100%" x2="100%" y2="0%"><stop offset="20%" stop-color="#ace286" stop-opacity="1"></stop><stop offset="80%" stop-color="#99dc6e" stop-opacity="1"></stop></linearGradient></defs><defs><linearGradient id="grad1_3" x1="33.3%" y1="100%" x2="100%" y2="0%"><stop offset="20%" stop-color="#ace286" stop-opacity="1"></stop><stop offset="80%" stop-color="#bde89e" stop-opacity="1"></stop></linearGradient></defs><defs><linearGradient id="grad1_4" x1="33.3%" y1="100%" x2="100%" y2="0%"><stop offset="20%" stop-color="#ceeeb6" stop-opacity="1"></stop><stop offset="80%" stop-color="#bde89e" stop-opacity="1"></stop></linearGradient></defs><defs><linearGradient id="grad1_5" x1="33.3%" y1="100%" x2="100%" y2="0%"><stop offset="20%" stop-color="#ceeeb6" stop-opacity="1"></stop><stop offset="80%" stop-color="#dff4ce" stop-opacity="1"></stop></linearGradient></defs><defs><linearGradient id="grad1_6" x1="33.3%" y1="100%" x2="100%" y2="0%"><stop offset="20%" stop-color="#effae7" stop-opacity="1"></stop><stop offset="80%" stop-color="#dff4ce" stop-opacity="1"></stop></linearGradient></defs><defs><linearGradient id="grad1_7" x1="33.3%" y1="100%" x2="100%" y2="0%"><stop offset="20%" stop-color="#effae7" stop-opacity="1"></stop><stop offset="80%" stop-color="#ffffff" stop-opacity="1"></stop></linearGradient></defs><defs><linearGradient id="grad2_0" x1="0%" y1="100%" x2="66.7%" y2="0%"><stop offset="20%" stop-color="#85d654" stop-opacity="1"></stop><stop offset="80%" stop-color="#85d654" stop-opacity="1"></stop></linearGradient></defs><defs><linearGradient id="grad2_1" x1="0%" y1="100%" x2="66.7%" y2="0%"><stop offset="20%" stop-color="#99dc6e" stop-opacity="1"></stop><stop offset="80%" stop-color="#85d654" stop-opacity="1"></stop></linearGradient></defs><defs><linearGradient id="grad2_2" x1="0%" y1="100%" x2="66.7%" y2="0%"><stop offset="20%" stop-color="#99dc6e" stop-opacity="1"></stop><stop offset="80%" stop-color="#ace286" stop-opacity="1"></stop></linearGradient></defs><defs><linearGradient id="grad2_3" x1="0%" y1="100%" x2="66.7%" y2="0%"><stop offset="20%" stop-color="#bde89e" stop-opacity="1"></stop><stop offset="80%" stop-color="#ace286" stop-opacity="1"></stop></linearGradient></defs><defs><linearGradient id="grad2_4" x1="0%" y1="100%" x2="66.7%" y2="0%"><stop offset="20%" stop-color="#bde89e" stop-opacity="1"></stop><stop offset="80%" stop-color="#ceeeb6" stop-opacity="1"></stop></linearGradient></defs><defs><linearGradient id="grad2_5" x1="0%" y1="100%" x2="66.7%" y2="0%"><stop offset="20%" stop-color="#dff4ce" stop-opacity="1"></stop><stop offset="80%" stop-color="#ceeeb6" stop-opacity="1"></stop></linearGradient></defs><defs><linearGradient id="grad2_6" x1="0%" y1="100%" x2="66.7%" y2="0%"><stop offset="20%" stop-color="#dff4ce" stop-opacity="1"></stop><stop offset="80%" stop-color="#effae7" stop-opacity="1"></stop></linearGradient></defs><defs><linearGradient id="grad2_7" x1="0%" y1="100%" x2="66.7%" y2="0%"><stop offset="20%" stop-color="#ffffff" stop-opacity="1"></stop><stop offset="80%" stop-color="#effae7" stop-opacity="1"></stop></linearGradient></defs><g transform="translate(900, 600)"><path d="M-486.7 0C-462.6 -78.1 -438.5 -156.2 -401 -231.5C-363.4 -306.8 -312.4 -379.5 -243.4 -421.5C-174.3 -463.6 -87.2 -475.2 0 -486.7L0 0Z" fill="#f7fcf3"></path><path d="M-425.9 0C-404.8 -68.3 -383.7 -136.6 -350.8 -202.6C-318 -268.5 -273.4 -332 -213 -368.8C-152.5 -405.7 -76.3 -415.8 0 -425.9L0 0Z" fill="#e7f7db"></path><path d="M-365.1 0C-347 -58.6 -328.9 -117.1 -300.7 -173.6C-272.6 -230.1 -234.3 -284.6 -182.5 -316.2C-130.7 -347.7 -65.4 -356.4 0 -365.1L0 0Z" fill="#d7f1c2"></path><path d="M-304.2 0C-289.1 -48.8 -274.1 -97.6 -250.6 -144.7C-227.1 -191.8 -195.3 -237.2 -152.1 -263.5C-108.9 -289.8 -54.5 -297 0 -304.2L0 0Z" fill="#c6ebaa"></path><path d="M-243.4 0C-231.3 -39 -219.3 -78.1 -200.5 -115.8C-181.7 -153.4 -156.2 -189.7 -121.7 -210.8C-87.2 -231.8 -43.6 -237.6 0 -243.4L0 0Z" fill="#b4e592"></path><path d="M-182.5 0C-173.5 -29.3 -164.4 -58.6 -150.4 -86.8C-136.3 -115.1 -117.2 -142.3 -91.3 -158.1C-65.4 -173.9 -32.7 -178.2 0 -182.5L0 0Z" fill="#a2df7a"></path><path d="M-121.7 0C-115.7 -19.5 -109.6 -39 -100.2 -57.9C-90.9 -76.7 -78.1 -94.9 -60.8 -105.4C-43.6 -115.9 -21.8 -118.8 0 -121.7L0 0Z" fill="#8fd961"></path><path d="M-60.8 0C-57.8 -9.8 -54.8 -19.5 -50.1 -28.9C-45.4 -38.4 -39.1 -47.4 -30.4 -52.7C-21.8 -58 -10.9 -59.4 0 -60.8L0 0Z" fill="#85d654"></path></g><g transform="translate(0, 0)"><path d="M486.7 0C475.2 87.2 463.6 174.3 421.5 243.4C379.5 312.4 306.8 363.4 231.5 401C156.2 438.5 78.1 462.6 0 486.7L0 0Z" fill="#f7fcf3"></path><path d="M425.9 0C415.8 76.3 405.7 152.5 368.8 213C332 273.4 268.5 318 202.6 350.8C136.6 383.7 68.3 404.8 0 425.9L0 0Z" fill="#e7f7db"></path><path d="M365.1 0C356.4 65.4 347.7 130.7 316.2 182.5C284.6 234.3 230.1 272.6 173.6 300.7C117.1 328.9 58.6 347 0 365.1L0 0Z" fill="#d7f1c2"></path><path d="M304.2 0C297 54.5 289.8 108.9 263.5 152.1C237.2 195.3 191.8 227.1 144.7 250.6C97.6 274.1 48.8 289.1 0 304.2L0 0Z" fill="#c6ebaa"></path><path d="M243.4 0C237.6 43.6 231.8 87.2 210.8 121.7C189.7 156.2 153.4 181.7 115.8 200.5C78.1 219.3 39 231.3 0 243.4L0 0Z" fill="#b4e592"></path><path d="M182.5 0C178.2 32.7 173.9 65.4 158.1 91.3C142.3 117.2 115.1 136.3 86.8 150.4C58.6 164.4 29.3 173.5 0 182.5L0 0Z" fill="#a2df7a"></path><path d="M121.7 0C118.8 21.8 115.9 43.6 105.4 60.8C94.9 78.1 76.7 90.9 57.9 100.2C39 109.6 19.5 115.7 0 121.7L0 0Z" fill="#8fd961"></path><path d="M60.8 0C59.4 10.9 58 21.8 52.7 30.4C47.4 39.1 38.4 45.4 28.9 50.1C19.5 54.8 9.8 57.8 0 60.8L0 0Z" fill="#85d654"></path></g></svg>