<svg id="visual" viewBox="0 0 900 900" width="900" height="900" xmlns="http://www.w3.org/2000/svg" xmlns:xlink="http://www.w3.org/1999/xlink" version="1.1"><rect x="0" y="0" width="900" height="900" fill="#fff"></rect><defs><linearGradient id="grad1_0" x1="0%" y1="0%" x2="100%" y2="100%"><stop offset="30%" stop-color="#badeae" stop-opacity="1"></stop><stop offset="70%" stop-color="#badeae" stop-opacity="1"></stop></linearGradient></defs><defs><linearGradient id="grad1_1" x1="0%" y1="0%" x2="100%" y2="100%"><stop offset="30%" stop-color="#badeae" stop-opacity="1"></stop><stop offset="70%" stop-color="#c8e5be" stop-opacity="1"></stop></linearGradient></defs><defs><linearGradient id="grad1_2" x1="0%" y1="0%" x2="100%" y2="100%"><stop offset="30%" stop-color="#d6ebce" stop-opacity="1"></stop><stop offset="70%" stop-color="#c8e5be" stop-opacity="1"></stop></linearGradient></defs><defs><linearGradient id="grad1_3" x1="0%" y1="0%" x2="100%" y2="100%"><stop offset="30%" stop-color="#d6ebce" stop-opacity="1"></stop><stop offset="70%" stop-color="#e4f2de" stop-opacity="1"></stop></linearGradient></defs><defs><linearGradient id="grad1_4" x1="0%" y1="0%" x2="100%" y2="100%"><stop offset="30%" stop-color="#f1f8ef" stop-opacity="1"></stop><stop offset="70%" stop-color="#e4f2de" stop-opacity="1"></stop></linearGradient></defs><defs><linearGradient id="grad1_5" x1="0%" y1="0%" x2="100%" y2="100%"><stop offset="30%" stop-color="#f1f8ef" stop-opacity="1"></stop><stop offset="70%" stop-color="#ffffff" stop-opacity="1"></stop></linearGradient></defs><defs><linearGradient id="grad2_0" x1="0%" y1="0%" x2="100%" y2="100%"><stop offset="30%" stop-color="#badeae" stop-opacity="1"></stop><stop offset="70%" stop-color="#badeae" stop-opacity="1"></stop></linearGradient></defs><defs><linearGradient id="grad2_1" x1="0%" y1="0%" x2="100%" y2="100%"><stop offset="30%" stop-color="#c8e5be" stop-opacity="1"></stop><stop offset="70%" stop-color="#badeae" stop-opacity="1"></stop></linearGradient></defs><defs><linearGradient id="grad2_2" x1="0%" y1="0%" x2="100%" y2="100%"><stop offset="30%" stop-color="#c8e5be" stop-opacity="1"></stop><stop offset="70%" stop-color="#d6ebce" stop-opacity="1"></stop></linearGradient></defs><defs><linearGradient id="grad2_3" x1="0%" y1="0%" x2="100%" y2="100%"><stop offset="30%" stop-color="#e4f2de" stop-opacity="1"></stop><stop offset="70%" stop-color="#d6ebce" stop-opacity="1"></stop></linearGradient></defs><defs><linearGradient id="grad2_4" x1="0%" y1="0%" x2="100%" y2="100%"><stop offset="30%" stop-color="#e4f2de" stop-opacity="1"></stop><stop offset="70%" stop-color="#f1f8ef" stop-opacity="1"></stop></linearGradient></defs><defs><linearGradient id="grad2_5" x1="0%" y1="0%" x2="100%" y2="100%"><stop offset="30%" stop-color="#ffffff" stop-opacity="1"></stop><stop offset="70%" stop-color="#f1f8ef" stop-opacity="1"></stop></linearGradient></defs><g transform="translate(900, 0)"><path d="M0 604.6C-107.2 589.6 -214.4 574.7 -302.3 523.6C-390.1 472.5 -458.6 385.3 -505.8 292C-552.9 198.7 -578.7 99.4 -604.6 0L0 0Z" fill="#f8fcf7"></path><path d="M0 503.8C-89.4 491.3 -178.7 478.9 -251.9 436.3C-325.1 393.7 -382.2 321.1 -421.5 243.3C-460.8 165.6 -482.3 82.8 -503.8 0L0 0Z" fill="#eaf5e6"></path><path d="M0 403.1C-71.5 393.1 -143 383.1 -201.5 349.1C-260.1 315 -305.7 256.9 -337.2 194.7C-368.6 132.5 -385.8 66.2 -403.1 0L0 0Z" fill="#ddefd6"></path><path d="M0 302.3C-53.6 294.8 -107.2 287.3 -151.1 261.8C-195.1 236.2 -229.3 192.6 -252.9 146C-276.5 99.4 -289.4 49.7 -302.3 0L0 0Z" fill="#cfe8c6"></path><path d="M0 201.5C-35.7 196.5 -71.5 191.6 -100.8 174.5C-130 157.5 -152.9 128.4 -168.6 97.3C-184.3 66.2 -192.9 33.1 -201.5 0L0 0Z" fill="#c1e1b6"></path><path d="M0 100.8C-17.9 98.3 -35.7 95.8 -50.4 87.3C-65 78.7 -76.4 64.2 -84.3 48.7C-92.2 33.1 -96.5 16.6 -100.8 0L0 0Z" fill="#badeae"></path></g><g transform="translate(0, 900)"><path d="M0 -604.6C105.5 -588.6 211 -572.7 302.3 -523.6C393.6 -474.5 470.7 -392.3 518.7 -299.5C566.8 -206.7 585.7 -103.4 604.6 0L0 0Z" fill="#f8fcf7"></path><path d="M0 -503.8C87.9 -490.5 175.8 -477.2 251.9 -436.3C328 -395.4 392.3 -326.9 432.3 -249.6C472.3 -172.3 488.1 -86.1 503.8 0L0 0Z" fill="#eaf5e6"></path><path d="M0 -403.1C70.3 -392.4 140.7 -381.8 201.5 -349.1C262.4 -316.3 313.8 -261.5 345.8 -199.7C377.8 -137.8 390.4 -68.9 403.1 0L0 0Z" fill="#ddefd6"></path><path d="M0 -302.3C52.7 -294.3 105.5 -286.3 151.1 -261.8C196.8 -237.2 235.4 -196.1 259.4 -149.8C283.4 -103.4 292.8 -51.7 302.3 0L0 0Z" fill="#cfe8c6"></path><path d="M0 -201.5C35.2 -196.2 70.3 -190.9 100.8 -174.5C131.2 -158.2 156.9 -130.8 172.9 -99.8C188.9 -68.9 195.2 -34.5 201.5 0L0 0Z" fill="#c1e1b6"></path><path d="M0 -100.8C17.6 -98.1 35.2 -95.4 50.4 -87.3C65.6 -79.1 78.5 -65.4 86.5 -49.9C94.5 -34.5 97.6 -17.2 100.8 0L0 0Z" fill="#badeae"></path></g></svg>