<svg width="196" height="71" viewBox="0 0 196 71" fill="none" xmlns="http://www.w3.org/2000/svg">
<g clip-path="url(#clip0_1_2)">
<path d="M1.466 43.952H7.866C8.97533 43.952 9.67933 43.376 9.978 42.224L20.282 4.208C20.3673 3.78133 20.41 3.52533 20.41 3.44C20.41 2.8 19.9833 2.48 19.13 2.48H17.018C15.5673 2.48 14.1807 2.84267 12.858 3.568C11.578 4.29333 10.5113 5.06133 9.658 5.872C8.42067 7.06666 7.31133 8.53866 6.33 10.288C5.39133 11.9947 4.62333 13.616 4.026 15.152C3.47133 16.6453 3.194 17.456 3.194 17.584H1.594L6.714 0.431999H41.786L37.754 17.584H36.154C36.1967 17.4133 36.2607 17.0293 36.346 16.432C36.474 15.8347 36.602 15.024 36.73 14C36.858 12.976 36.922 11.952 36.922 10.928C36.922 7.77066 36.2607 5.57333 34.938 4.336C33.658 3.09867 32.186 2.48 30.522 2.48H28.41C27.13 2.48 26.362 3.056 26.106 4.208L15.802 42.224C15.7593 42.3947 15.738 42.6293 15.738 42.928C15.738 43.2693 15.8233 43.5253 15.994 43.696C16.2073 43.8667 16.5273 43.952 16.954 43.952H23.354L22.842 46H0.954002L1.466 43.952ZM30.1485 43.952H32.5165C34.2658 43.952 35.8232 43.504 37.1885 42.608C38.5965 41.712 39.6845 40.624 40.4525 39.344L66.7565 0.431999H68.2925V41.2C68.3778 42.2667 68.6765 42.992 69.1885 43.376C69.7005 43.76 70.4258 43.952 71.3645 43.952H74.9485L74.4365 46H55.4925L56.0045 43.952H59.9725C60.8685 43.952 61.5298 43.76 61.9565 43.376C62.4258 42.992 62.6605 42.2027 62.6605 41.008V30.384H49.2845L44.9325 36.784C43.4818 38.8747 42.7565 40.5387 42.7565 41.776C42.7565 43.2267 43.6098 43.952 45.3165 43.952H48.8365L48.3245 46H29.6365L30.1485 43.952ZM50.6925 28.336H62.6605V10.672L50.6925 28.336ZM100.007 2.48H98.727L88.999 37.936C88.743 38.8747 88.615 39.7707 88.615 40.624C88.615 42.8427 89.6817 43.952 91.815 43.952H94.887L94.375 46H77.095L77.607 43.952H80.679C82.087 43.952 83.2817 43.3973 84.263 42.288C85.287 41.136 86.0337 39.6853 86.503 37.936L95.655 4.208C95.7403 3.86666 95.783 3.61067 95.783 3.44C95.783 2.8 95.335 2.48 94.439 2.48H88.871L89.383 0.431999H105.639V35.952L125.095 0.431999H139.943L139.431 2.48H134.567C133.97 2.48 133.5 2.62933 133.159 2.928C132.818 3.184 132.562 3.61066 132.391 4.208L122.087 42.224C122.002 42.5653 121.959 42.7787 121.959 42.864C121.959 43.5893 122.45 43.952 123.431 43.952H128.295L127.783 46H108.711L109.223 43.952H114.087C115.239 43.952 115.964 43.376 116.263 42.224L127.015 2.48H126.055L101.607 46.768H100.007V2.48ZM155.915 2.48H154.635L144.907 37.936C144.651 38.8747 144.523 39.7707 144.523 40.624C144.523 42.8427 145.589 43.952 147.723 43.952H150.795L150.283 46H133.003L133.515 43.952H136.587C137.995 43.952 139.189 43.3973 140.171 42.288C141.195 41.136 141.941 39.6853 142.411 37.936L151.563 4.208C151.648 3.86666 151.691 3.61067 151.691 3.44C151.691 2.8 151.243 2.48 150.347 2.48H144.779L145.291 0.431999H161.547V35.952L181.003 0.431999H195.851L195.339 2.48H190.475C189.877 2.48 189.408 2.62933 189.067 2.928C188.725 3.184 188.469 3.61066 188.299 4.208L177.995 42.224C177.909 42.5653 177.867 42.7787 177.867 42.864C177.867 43.5893 178.357 43.952 179.339 43.952H184.203L183.691 46H164.619L165.131 43.952H169.995C171.147 43.952 171.872 43.376 172.171 42.224L182.923 2.48H181.963L157.515 46.768H155.915V2.48Z" fill="#0C4BA9"/>
<path d="M34.5293 61.5303C34.4883 61.512 34.388 61.4824 34.2285 61.4414C34.0736 61.3958 33.8617 61.3525 33.5928 61.3115C33.3285 61.2705 33.0413 61.25 32.7314 61.25C31.7881 61.25 31.0612 61.5941 30.5508 62.2822C30.0449 62.9658 29.792 63.9525 29.792 65.2422C29.792 66.4544 30.0654 67.3636 30.6123 67.9697C31.1592 68.5758 31.8906 68.8789 32.8066 68.8789C33.2441 68.8789 33.6702 68.7946 34.085 68.626C34.4997 68.4574 34.8551 68.2751 35.1514 68.0791C35.4521 67.8831 35.6025 67.776 35.6025 67.7578L36.1631 68.667C36.1631 68.6943 35.9945 68.8379 35.6572 69.0977C35.3245 69.3529 34.8984 69.5898 34.3789 69.8086C33.8594 70.0273 33.2874 70.1367 32.6631 70.1367C31.2458 70.1367 30.1452 69.722 29.3613 68.8926C28.5775 68.0632 28.1855 66.8691 28.1855 65.3105C28.1855 64.2487 28.377 63.3236 28.7598 62.5352C29.1426 61.7422 29.6849 61.1315 30.3867 60.7031C31.0931 60.2747 31.9225 60.0605 32.875 60.0605C33.3307 60.0605 33.791 60.113 34.2559 60.2178C34.7253 60.318 35.1377 60.432 35.4932 60.5596C35.8486 60.6826 36.0264 60.7487 36.0264 60.7578L35.958 63.1367H34.9053L34.5293 61.5303ZM42.958 67.2725H43.9355V70H37.1475V69.1592L38.3369 68.8789V61.3184L37.1475 61.0381V60.2725L40.9961 60.1973V61.0381L39.8066 61.3184V68.8789H42.6777L42.958 67.2725ZM50.6621 64.333V65.4473H47.4424V68.8789H50.6621L50.9424 67.4775H51.8516V70H44.7764V69.1592L45.9658 68.8789V61.3184L44.7764 61.0381V60.2725L47.4424 60.1973H51.708V62.583H50.7988L50.4502 61.3184H47.4424V64.333H50.6621ZM56.4043 60.2725L57.8057 60.1973L60.916 68.8926L62.0781 69.1592V70H58.0176V69.1592L59.3164 68.8926L58.7832 67.3408H55.1465L54.5996 68.8926L55.9121 69.1592V70H52.0635V69.1592L53.2119 68.8926L56.4043 60.2725ZM56.9922 62.0088L55.5225 66.2197H58.4072L56.9922 62.0088ZM66.0566 69.1592V70H62.2764V69.1592L63.4658 68.8789V61.3184L62.2764 61.0381V60.2725L65.2158 60.1973L69.8369 68.0244V61.3184L68.6475 61.0381V60.2725L72.2842 60.1973V61.0381L71.0947 61.3184V70H69.3447L64.7236 62.2891V68.8789L66.0566 69.1592ZM73.4053 69.1592L74.5947 68.8789V61.3184L73.4053 61.0381V60.2725L77.2539 60.1973V61.0381L76.0645 61.3184V68.8789L77.2539 69.1592V70H73.4053V69.1592ZM82.2305 69.1592V70H78.4502V69.1592L79.6396 68.8789V61.3184L78.4502 61.0381V60.2725L81.3896 60.1973L86.0107 68.0244V61.3184L84.8213 61.0381V60.2725L88.458 60.1973V61.0381L87.2686 61.3184V70H85.5186L80.8975 62.2891V68.8789L82.2305 69.1592ZM97.8369 69.3027C97.8369 69.321 97.6615 69.403 97.3105 69.5488C96.9642 69.6901 96.5244 69.8245 95.9912 69.9521C95.458 70.0752 94.8838 70.1367 94.2686 70.1367C92.8512 70.1367 91.7507 69.722 90.9668 68.8926C90.1829 68.0632 89.791 66.8691 89.791 65.3105C89.791 64.2487 89.9824 63.3236 90.3652 62.5352C90.748 61.7422 91.2904 61.1315 91.9922 60.7031C92.6986 60.2747 93.528 60.0605 94.4805 60.0605C94.9362 60.0605 95.3965 60.113 95.8613 60.2178C96.3307 60.318 96.7432 60.432 97.0986 60.5596C97.4541 60.6826 97.6318 60.7487 97.6318 60.7578L97.5635 63.0684H96.6475L96.2305 61.5303C96.1849 61.512 96.0755 61.4824 95.9023 61.4414C95.7292 61.3958 95.5013 61.3525 95.2188 61.3115C94.9408 61.2705 94.6468 61.25 94.3369 61.25C93.3936 61.25 92.6667 61.5941 92.1562 62.2822C91.6504 62.9658 91.3975 63.9525 91.3975 65.2422C91.3975 66.4635 91.6755 67.3864 92.2314 68.0107C92.7874 68.6351 93.5371 68.9473 94.4805 68.9473C94.7676 68.9473 95.0547 68.9222 95.3418 68.8721C95.6335 68.8219 95.8773 68.7695 96.0732 68.7148C96.2692 68.6556 96.3923 68.6169 96.4424 68.5986V66.3018L95.2529 66.0215V65.2559L98.8896 65.1807V66.0215L97.8369 66.3018V69.3027ZM105.056 68.5986C105.092 68.6169 105.176 68.6556 105.309 68.7148C105.441 68.7695 105.621 68.8219 105.849 68.8721C106.076 68.9222 106.325 68.9473 106.594 68.9473C107.154 68.9473 107.651 68.8151 108.084 68.5508C108.521 68.2865 108.74 67.9196 108.74 67.4502C108.74 67.1494 108.647 66.8988 108.46 66.6982C108.273 66.4932 108.041 66.3268 107.763 66.1992C107.489 66.0716 107.111 65.9189 106.628 65.7412C105.994 65.5179 105.482 65.3083 105.09 65.1123C104.702 64.9163 104.37 64.6338 104.092 64.2646C103.818 63.8955 103.682 63.4215 103.682 62.8428C103.682 61.9176 103.996 61.2227 104.625 60.7578C105.258 60.293 106.051 60.0605 107.004 60.0605C107.396 60.0605 107.811 60.1038 108.248 60.1904C108.686 60.2725 109.059 60.359 109.369 60.4502C109.679 60.5368 109.875 60.5938 109.957 60.6211L109.889 63H108.979L108.501 61.5029C108.465 61.4938 108.376 61.4688 108.234 61.4277C108.093 61.3822 107.911 61.3411 107.688 61.3047C107.464 61.2682 107.241 61.25 107.018 61.25C106.421 61.25 105.96 61.3844 105.637 61.6533C105.313 61.9176 105.151 62.2367 105.151 62.6104C105.151 62.9111 105.245 63.1641 105.432 63.3691C105.618 63.5697 105.851 63.736 106.129 63.8682C106.411 64.0003 106.806 64.1553 107.312 64.333C107.918 64.5472 108.414 64.75 108.802 64.9414C109.189 65.1328 109.517 65.404 109.786 65.7549C110.06 66.1012 110.196 66.541 110.196 67.0742C110.196 67.7441 110.032 68.3115 109.704 68.7764C109.376 69.2367 108.934 69.5785 108.378 69.8018C107.826 70.0251 107.214 70.1367 106.539 70.1367C106.102 70.1367 105.671 70.0957 105.247 70.0137C104.823 69.9316 104.47 69.8473 104.188 69.7607C103.91 69.6696 103.732 69.6104 103.654 69.583V67.1289H104.775L105.056 68.5986ZM117.613 64.333V65.4473H114.394V68.8789H117.613L117.894 67.4775H118.803V70H111.728V69.1592L112.917 68.8789V61.3184L111.728 61.0381V60.2725L114.394 60.1973H118.659V62.583H117.75L117.401 61.3184H114.394V64.333H117.613ZM121.394 61.3184L120.204 61.0381V60.2725L122.863 60.1973H124.401C125.39 60.1973 126.163 60.4229 126.719 60.874C127.275 61.3206 127.553 61.9359 127.553 62.7197C127.553 64.0915 126.947 65.0007 125.734 65.4473C125.958 65.6432 126.238 66.0648 126.575 66.7119L127.683 68.9336L128.674 69.1592V70H126.575L125.386 67.4092C125.162 66.9261 124.966 66.5706 124.798 66.3428C124.629 66.1104 124.449 65.9508 124.258 65.8643C124.066 65.7731 123.811 65.7275 123.492 65.7275H122.863V68.8789L124.053 69.1592V70H120.204V69.1592L121.394 68.8789V61.3184ZM123.916 64.6816C124.595 64.6816 125.126 64.529 125.509 64.2236C125.892 63.9137 126.083 63.4831 126.083 62.9316C126.083 62.4668 125.919 62.0817 125.591 61.7764C125.267 61.471 124.848 61.3184 124.333 61.3184H122.863V64.6816H123.916ZM128.817 60.2725L132.741 60.1973V61.0381L131.463 61.3047L133.664 68.1133L136.002 61.3184L134.696 61.0381V60.2725L138.477 60.1973V61.0381L137.39 61.3184L134.279 70H132.878L129.897 61.3184L128.817 61.0381V60.2725ZM138.894 69.1592L140.083 68.8789V61.3184L138.894 61.0381V60.2725L142.742 60.1973V61.0381L141.553 61.3184V68.8789L142.742 69.1592V70H138.894V69.1592ZM150.562 61.5303C150.521 61.512 150.421 61.4824 150.262 61.4414C150.107 61.3958 149.895 61.3525 149.626 61.3115C149.362 61.2705 149.075 61.25 148.765 61.25C147.821 61.25 147.094 61.5941 146.584 62.2822C146.078 62.9658 145.825 63.9525 145.825 65.2422C145.825 66.4544 146.099 67.3636 146.646 67.9697C147.192 68.5758 147.924 68.8789 148.84 68.8789C149.277 68.8789 149.703 68.7946 150.118 68.626C150.533 68.4574 150.888 68.2751 151.185 68.0791C151.485 67.8831 151.636 67.776 151.636 67.7578L152.196 68.667C152.196 68.6943 152.028 68.8379 151.69 69.0977C151.358 69.3529 150.932 69.5898 150.412 69.8086C149.893 70.0273 149.321 70.1367 148.696 70.1367C147.279 70.1367 146.178 69.722 145.395 68.8926C144.611 68.0632 144.219 66.8691 144.219 65.3105C144.219 64.2487 144.41 63.3236 144.793 62.5352C145.176 61.7422 145.718 61.1315 146.42 60.7031C147.126 60.2747 147.956 60.0605 148.908 60.0605C149.364 60.0605 149.824 60.113 150.289 60.2178C150.758 60.318 151.171 60.432 151.526 60.5596C151.882 60.6826 152.06 60.7487 152.06 60.7578L151.991 63.1367H150.938L150.562 61.5303ZM159.271 64.333V65.4473H156.052V68.8789H159.271L159.552 67.4775H160.461V70H153.386V69.1592L154.575 68.8789V61.3184L153.386 61.0381V60.2725L156.052 60.1973H160.317V62.583H159.408L159.06 61.3184H156.052V64.333H159.271ZM163.681 68.5986C163.717 68.6169 163.801 68.6556 163.934 68.7148C164.066 68.7695 164.246 68.8219 164.474 68.8721C164.701 68.9222 164.95 68.9473 165.219 68.9473C165.779 68.9473 166.276 68.8151 166.709 68.5508C167.146 68.2865 167.365 67.9196 167.365 67.4502C167.365 67.1494 167.272 66.8988 167.085 66.6982C166.898 66.4932 166.666 66.3268 166.388 66.1992C166.114 66.0716 165.736 65.9189 165.253 65.7412C164.619 65.5179 164.107 65.3083 163.715 65.1123C163.327 64.9163 162.995 64.6338 162.717 64.2646C162.443 63.8955 162.307 63.4215 162.307 62.8428C162.307 61.9176 162.621 61.2227 163.25 60.7578C163.883 60.293 164.676 60.0605 165.629 60.0605C166.021 60.0605 166.436 60.1038 166.873 60.1904C167.311 60.2725 167.684 60.359 167.994 60.4502C168.304 60.5368 168.5 60.5938 168.582 60.6211L168.514 63H167.604L167.126 61.5029C167.09 61.4938 167.001 61.4688 166.859 61.4277C166.718 61.3822 166.536 61.3411 166.312 61.3047C166.089 61.2682 165.866 61.25 165.643 61.25C165.046 61.25 164.585 61.3844 164.262 61.6533C163.938 61.9176 163.776 62.2367 163.776 62.6104C163.776 62.9111 163.87 63.1641 164.057 63.3691C164.243 63.5697 164.476 63.736 164.754 63.8682C165.036 64.0003 165.431 64.1553 165.937 64.333C166.543 64.5472 167.039 64.75 167.427 64.9414C167.814 65.1328 168.142 65.404 168.411 65.7549C168.685 66.1012 168.821 66.541 168.821 67.0742C168.821 67.7441 168.657 68.3115 168.329 68.7764C168.001 69.2367 167.559 69.5785 167.003 69.8018C166.451 70.0251 165.839 70.1367 165.164 70.1367C164.727 70.1367 164.296 70.0957 163.872 70.0137C163.448 69.9316 163.095 69.8473 162.812 69.7607C162.535 69.6696 162.357 69.6104 162.279 69.583V67.1289H163.4L163.681 68.5986Z" fill="#0C4BA9"/>
</g>
<defs>
<clipPath id="clip0_1_2">
<rect width="196" height="71" fill="white"/>
</clipPath>
</defs>
</svg>
