
<svg xmlns="http://www.w3.org/2000/svg" xmlns:xlink="http://www.w3.org/1999/xlink" viewBox="0,0,256,256" width="16px" height="16px" fill-rule="nonzero"><g fill="#85d654" fill-rule="nonzero" stroke="none" stroke-width="1" stroke-linecap="butt" stroke-linejoin="miter" stroke-miterlimit="10" stroke-dasharray="" stroke-dashoffset="0" font-family="none" font-weight="none" font-size="none" text-anchor="none" style="mix-blend-mode: normal"><g transform="scale(5.12,5.12)"><path d="M11.83984,2.98828c-0.76953,-0.0625 -1.625,0.16016 -2.41406,0.71484c-0.69531,0.48438 -2.19531,1.67578 -3.59766,3.02344c-0.69922,0.67188 -1.36719,1.37109 -1.88281,2.05859c-0.51953,0.6875 -0.97266,1.31641 -0.94531,2.23047c0.02734,0.82031 0.10938,3.24609 1.85547,6.96484c1.74609,3.71484 5.13281,8.8125 11.73828,15.42188c6.60938,6.60938 11.70703,9.99609 15.42188,11.74219c3.71484,1.74609 6.14453,1.82813 6.96484,1.85547c0.91016,0.02734 1.53906,-0.42578 2.22656,-0.94531c0.6875,-0.51953 1.38672,-1.18359 2.05859,-1.88281c1.34375,-1.40234 2.53516,-2.90234 3.01953,-3.59766c1.10547,-1.57422 0.92188,-3.43359 -0.30859,-4.29687c-0.77344,-0.54297 -7.88672,-5.27734 -8.95703,-5.93359c-1.08594,-0.66406 -2.33594,-0.36328 -3.45312,0.22656c-0.87891,0.46484 -3.25781,1.82813 -3.9375,2.21875c-0.51172,-0.32422 -2.45312,-1.61719 -6.62891,-5.79297c-4.17969,-4.17578 -5.46875,-6.11719 -5.79297,-6.62891c0.39063,-0.67969 1.75,-3.04687 2.21875,-3.94141c0.58594,-1.11328 0.91406,-2.375 0.21484,-3.46875c-0.29297,-0.46484 -1.625,-2.49219 -2.96875,-4.52734c-1.34766,-2.03516 -2.625,-3.96484 -2.95703,-4.42578v-0.00391c-0.43359,-0.59766 -1.10937,-0.94922 -1.875,-1.01172zM11.65625,5.03125c0.27344,0.03516 0.4375,0.14453 0.4375,0.14453c0.16016,0.22266 1.5625,2.32422 2.90625,4.35547c1.34375,2.03516 2.71484,4.12109 2.95313,4.5c0.03906,0.05859 0.09375,0.72266 -0.29687,1.46094v0.00391c-0.44141,0.83984 -2.5,4.4375 -2.5,4.4375l-0.28516,0.50391l0.29297,0.5c0,0 1.53516,2.58984 6.41797,7.47266c4.88672,4.88281 7.47656,6.42188 7.47656,6.42188l0.5,0.29297l0.50391,-0.28516c0,0 3.58984,-2.05469 4.4375,-2.5c0.73828,-0.38672 1.40234,-0.33594 1.48047,-0.28906c0.69141,0.42578 8.375,5.53125 8.84766,5.86328c0.01563,0.01172 0.43359,0.64453 -0.17578,1.51172h-0.00391c-0.36719,0.52734 -1.57031,2.05469 -2.82422,3.35938c-0.62891,0.65234 -1.27344,1.26172 -1.82031,1.67188c-0.54687,0.41016 -1.03516,0.53906 -0.95703,0.54297c-0.85156,-0.02734 -2.73047,-0.04687 -6.17969,-1.66797c-3.44922,-1.61719 -8.37109,-4.85547 -14.85937,-11.34766c-6.48437,-6.48437 -9.72266,-11.40625 -11.34375,-14.85937c-1.61719,-3.44922 -1.63672,-5.32812 -1.66406,-6.17578c0.00391,0.07813 0.13281,-0.41406 0.54297,-0.96094c0.41016,-0.54687 1.01563,-1.19531 1.66797,-1.82422c1.30859,-1.25391 2.83203,-2.45703 3.35938,-2.82422v0.00391c0.43359,-0.30469 0.8125,-0.34375 1.08594,-0.3125z"></path></g></g></svg>